<svg xmlns="http://www.w3.org/2000/svg" width="31.131" height="50.223" viewBox="0 0 31.131 50.223"><defs><style>.a{fill:#bcbcbc;}.b{fill:#d8d8d8;}.c{fill:#ccc;}.d{fill:#e0e0e0;}.e{fill:#e8e8e8;}.f{fill:#f4f4f4;}.g{fill:#fff;}</style></defs><g transform="translate(-95.586 -99.686)"><g transform="translate(95.586 99.686)"><g transform="translate(0.091 0)"><path class="a" d="M500.356,104.778H495.6l2.193-4.2Z" transform="translate(-469.48 -100.58)"/><path class="b" d="M473.9,100.58l-2.193,4.2-6.586-4.2Z" transform="translate(-445.585 -100.58)"/><path class="c" d="M471.706,104.778h-5.378l-1.208-4.2Z" transform="translate(-445.585 -100.58)"/><path class="b" d="M450.382,100.58l1.208,4.2h-5.27Z" transform="translate(-430.847 -100.58)"/><path class="b" d="M436.052,100.58l-4.062,4.2-3.95-4.2Z" transform="translate(-416.517 -100.58)"/><path class="c" d="M462.2,120.129,446.83,144.041l10.538-24.031h4.756Z" transform="translate(-431.247 -115.812)"/><path class="b" d="M457.368,120.01,446.83,144.041l5.16-24.031Z" transform="translate(-431.247 -115.812)"/><path class="d" d="M451.59,120.01l-5.16,24.031-.11-24.031Z" transform="translate(-430.847 -115.812)"/><path class="d" d="M428.407,104.778H423.47l.987-4.2Z" transform="translate(-412.935 -100.58)"/><path class="e" d="M428.407,120.01l.11,24.031L423.47,120.01Z" transform="translate(-412.935 -115.812)"/><path class="f" d="M403.558,120.01l5.047,24.031L398.07,120.01Z" transform="translate(-393.023 -115.812)"/><path class="e" d="M404.546,100.58l-.987,4.2H398.07Z" transform="translate(-393.023 -100.58)"/><path class="f" d="M396.981,100.58l-6.476,4.2-2.085-4.2Z" transform="translate(-385.458 -100.58)"/><path class="g" d="M379.757,120.01l10.535,24.031L374.71,120.01Z" transform="translate(-374.71 -115.812)"/><path class="g" d="M377.672,100.58l2.085,4.2H374.71Z" transform="translate(-374.71 -100.58)"/></g><path class="g" d="M389.14,143.034l-14.85-23.1,1.538.006,14.122,22.287Z" transform="translate(-374.29 -115.749)"/><path class="a" d="M446.69,143.154l14.852-23.1-1.538.006L445.88,142.344Z" transform="translate(-430.412 -115.843)"/><path class="g" d="M389.14,226.09l-14.85,23.1,1.538-.006L389.951,226.9Z" transform="translate(-374.29 -198.971)"/><path class="g" d="M446.69,225.98l14.852,23.1L460,249.075,445.88,226.788Z" transform="translate(-430.412 -198.885)"/></g><g transform="translate(95.586 99.686)"><path class="a" d="M508.477,104.787l-.164-.009-2.563-4.2Z" transform="translate(-477.346 -100.58)"/><path class="g" d="M374.29,104.761l3.053-4.181-2.85,4.181Z" transform="translate(-374.29 -100.58)"/></g></g></svg>