<svg xmlns="http://www.w3.org/2000/svg" width="23.805" height="26.45" viewBox="0 0 23.805 26.45">
  <path id="bx-bell" d="M24.16,17.323V12.58a9.266,9.266,0,0,0-6.8-8.916,2.641,2.641,0,0,0-4.906,0,9.267,9.267,0,0,0-6.8,8.916v4.743L3.387,19.58A1.317,1.317,0,0,0,3,20.515V23.16a1.321,1.321,0,0,0,1.322,1.323h21.16a1.321,1.321,0,0,0,1.323-1.323V20.515a1.317,1.317,0,0,0-.387-.935Zm0,4.515H5.645v-.775L7.9,18.805a1.317,1.317,0,0,0,.387-.935V12.58a6.613,6.613,0,1,1,13.225,0v5.29a1.317,1.317,0,0,0,.387.935l2.258,2.258ZM14.9,28.45a3.941,3.941,0,0,0,3.727-2.645H11.176A3.941,3.941,0,0,0,14.9,28.45Z" transform="translate(-3 -2)" fill="#8811f9"/>
</svg>
