<svg xmlns="http://www.w3.org/2000/svg" width="182.89" height="50.469" viewBox="0 0 182.89 50.469">
  <g id="LOGO_WHITE" data-name="LOGO WHITE" transform="translate(-18.77 -99.44)">
    <g id="big_diamond" transform="translate(95.586 99.686)">
      <g id="new_diamond" transform="translate(0.091 0)">
        <g id="XMLID_3_">
          <g id="Group_1" data-name="Group 1">
            <path id="Path_1" data-name="Path 1" d="M500.356,104.778H495.6l2.193-4.2Z" transform="translate(-469.48 -100.58)" fill="#bcbcbc"/>
            <path id="Path_2" data-name="Path 2" d="M473.9,100.58l-2.193,4.2-6.586-4.2Z" transform="translate(-445.585 -100.58)" fill="#d8d8d8"/>
            <path id="Path_3" data-name="Path 3" d="M471.706,104.778h-5.378l-1.208-4.2Z" transform="translate(-445.585 -100.58)" fill="#ccc"/>
            <path id="Path_4" data-name="Path 4" d="M450.382,100.58l1.208,4.2h-5.27Z" transform="translate(-430.847 -100.58)" fill="#d8d8d8"/>
            <path id="Path_5" data-name="Path 5" d="M436.052,100.58l-4.062,4.2-3.95-4.2Z" transform="translate(-416.517 -100.58)" fill="#d8d8d8"/>
            <path id="Path_6" data-name="Path 6" d="M462.2,120.129,446.83,144.041l10.538-24.031h4.756Z" transform="translate(-431.247 -115.812)" fill="#ccc"/>
            <path id="Path_7" data-name="Path 7" d="M457.368,120.01,446.83,144.041l5.16-24.031Z" transform="translate(-431.247 -115.812)" fill="#d8d8d8"/>
            <path id="Path_8" data-name="Path 8" d="M451.59,120.01l-5.16,24.031-.11-24.031Z" transform="translate(-430.847 -115.812)" fill="#e0e0e0"/>
            <path id="Path_9" data-name="Path 9" d="M428.407,104.778H423.47l.987-4.2Z" transform="translate(-412.935 -100.58)" fill="#e0e0e0"/>
            <path id="Path_10" data-name="Path 10" d="M428.407,120.01l.11,24.031L423.47,120.01Z" transform="translate(-412.935 -115.812)" fill="#e8e8e8"/>
            <path id="Path_11" data-name="Path 11" d="M403.558,120.01l5.047,24.031L398.07,120.01Z" transform="translate(-393.023 -115.812)" fill="#f4f4f4"/>
            <path id="Path_12" data-name="Path 12" d="M404.546,100.58l-.987,4.2H398.07Z" transform="translate(-393.023 -100.58)" fill="#e8e8e8"/>
            <path id="Path_13" data-name="Path 13" d="M396.981,100.58l-6.476,4.2-2.085-4.2Z" transform="translate(-385.458 -100.58)" fill="#f4f4f4"/>
            <path id="Path_14" data-name="Path 14" d="M379.757,120.01l10.535,24.031L374.71,120.01Z" transform="translate(-374.71 -115.812)" fill="#fff"/>
            <path id="Path_15" data-name="Path 15" d="M377.672,100.58l2.085,4.2H374.71Z" transform="translate(-374.71 -100.58)" fill="#fff"/>
          </g>
        </g>
      </g>
      <path id="Path_16" data-name="Path 16" d="M389.14,143.034l-14.85-23.1,1.538.006,14.122,22.287Z" transform="translate(-374.29 -115.749)" fill="#fff"/>
      <path id="Path_17" data-name="Path 17" d="M446.69,143.154l14.852-23.1-1.538.006L445.88,142.344Z" transform="translate(-430.412 -115.843)" fill="#bcbcbc"/>
      <path id="Path_18" data-name="Path 18" d="M389.14,226.09l-14.85,23.1,1.538-.006L389.951,226.9Z" transform="translate(-374.29 -198.971)" fill="#fff"/>
      <path id="Path_19" data-name="Path 19" d="M446.69,225.98l14.852,23.1L460,249.075,445.88,226.788Z" transform="translate(-430.412 -198.885)" fill="#fff"/>
    </g>
    <g id="text" transform="translate(18.77 99.44)">
      <g id="Group_2" data-name="Group 2" transform="translate(0 0)">
        <path id="Path_20" data-name="Path 20" d="M18.77,103.206a1.529,1.529,0,1,1,1.528,1.586A1.5,1.5,0,0,1,18.77,103.206Zm.94,9.7h1.175v31.736H19.71Z" transform="translate(-18.77 -101.149)" fill="#fff"/>
        <path id="Path_21" data-name="Path 21" d="M100.071,164.391c0-8.463-4.643-12.752-11.637-12.752-7.23,0-12.458,4.585-12.458,14.518v16.866H74.8V151.284h1.175v8.405c1.528-6.171,6.523-9.109,12.458-9.109,6.936,0,12.752,4.114,12.752,13.93v18.513h-1.117V164.391Z" transform="translate(-62.694 -139.53)" fill="#fff"/>
        <path id="Path_22" data-name="Path 22" d="M250.29,184.5c-8.816,0-15.28-6.054-15.28-16.279s6.465-16.281,15.28-16.281c9.7,0,14.576,6.994,14.576,13.634,0,1.528,0,2.115-.058,3.174H236.183c.177,10.168,6.994,14.693,14.1,14.693,7.052,0,12.4-3.82,13.4-10.108h1.175C263.807,179.856,258.518,184.5,250.29,184.5Zm-14.107-16.808h27.622c.588-10.226-6.465-14.693-13.517-14.693C243.061,153,236.183,157.582,236.183,167.691Z" transform="translate(-188.288 -140.596)" fill="#fff"/>
        <path id="Path_23" data-name="Path 23" d="M530.44,151.94c8.228,0,13.517,4.643,14.576,11.166h-1.175c-1-6.288-6.348-10.11-13.4-10.11-7.288,0-14.1,4.7-14.1,15.222s6.817,15.222,14.1,15.222c7.052,0,12.4-3.82,13.4-10.108h1.175c-1.059,6.523-6.348,11.166-14.576,11.166-8.816,0-15.28-6.054-15.28-16.279S521.625,151.94,530.44,151.94Z" transform="translate(-407.906 -140.596)" fill="#fff"/>
        <path id="Path_24" data-name="Path 24" d="M692.77,99.44h1.175v43.49H692.77Z" transform="translate(-547.141 -99.44)" fill="#fff"/>
        <path id="Path_25" data-name="Path 25" d="M769.478,185.584H768.3v-8.638c-1.469,6.229-6.523,9.228-12.458,9.228-6.936,0-12.754-4.114-12.754-13.928v-18.4h1.117v18.513c0,8.463,4.643,12.752,11.637,12.752,7.23,0,12.458-4.585,12.458-14.515V153.85h1.175Z" transform="translate(-586.588 -142.094)" fill="#fff"/>
      </g>
      <g id="Group_3" data-name="Group 3" transform="translate(41.118 25.906)">
        <path id="Path_26" data-name="Path 26" d="M210.6,222.512a1.587,1.587,0,1,1,1.528-1.586A1.5,1.5,0,0,1,210.6,222.512Z" transform="translate(-209.07 -219.34)" fill="#fff"/>
      </g>
      <rect id="CENTER" width="1.041" height="1.041" transform="translate(91.715 27.481) rotate(-45)" fill="#fff"/>
    </g>
    <g id="ajustement" transform="translate(95.586 99.686)">
      <path id="Path_27" data-name="Path 27" d="M508.477,104.787l-.164-.009-2.563-4.2Z" transform="translate(-477.346 -100.58)" fill="#bcbcbc"/>
      <path id="Path_28" data-name="Path 28" d="M374.29,104.761l3.053-4.181-2.85,4.181Z" transform="translate(-374.29 -100.58)" fill="#fff"/>
    </g>
  </g>
</svg>
