<svg id="Component_75_1" data-name="Component 75 – 1" xmlns="http://www.w3.org/2000/svg" width="45" height="45" viewBox="0 0 45 45">
  <g id="Ellipse_75" data-name="Ellipse 75" fill="#fff" stroke="#8811f9" stroke-width="1" opacity="0">
    <circle cx="22.5" cy="22.5" r="22.5" stroke="none"/>
    <circle cx="22.5" cy="22.5" r="22" fill="none"/>
  </g>
  <path id="Checklist" d="M7.107,2.428a.611.611,0,0,0-.865,0L3,5.651,1.844,4.525a.611.611,0,0,0-.865,0l-.8.8a.611.611,0,0,0,0,.865L2.6,8.6a.651.651,0,0,0,.9,0l.794-.8L7.968,4.133a.615.615,0,0,0,0-.865Zm0,8.1a.611.611,0,0,0-.865,0L3,13.776,1.844,12.651a.611.611,0,0,0-.865,0l-.8.8a.611.611,0,0,0,0,.865L2.6,16.733a.65.65,0,0,0,.9,0l.8-.8,3.676-3.677a.611.611,0,0,0,0-.86ZM3.258,19.355a2.444,2.444,0,1,0,0,4.887,2.444,2.444,0,1,0,0-4.887Zm21.993.815H10.589a.815.815,0,0,0-.815.815v1.629a.815.815,0,0,0,.815.815H25.251a.815.815,0,0,0,.815-.815V20.984A.815.815,0,0,0,25.251,20.169Zm0-16.291H10.589a.815.815,0,0,0-.815.815V6.322a.815.815,0,0,0,.815.815H25.251a.815.815,0,0,0,.815-.815V4.693A.815.815,0,0,0,25.251,3.879Zm0,8.145H10.589a.815.815,0,0,0-.815.815v1.629a.815.815,0,0,0,.815.815H25.251a.815.815,0,0,0,.815-.815V12.839A.815.815,0,0,0,25.251,12.024Z" transform="translate(9.467 9.255)"/>
</svg>
